# AST/ASF file generated using VICON BodyLanguage
# -----------------------------------------------
:version 1.10
:name VICON
:units
  mass 1.0
  length 0.45
  angle deg
:documentation
   .ast/.asf automatically generated from VICON data using
   VICON BodyBuilder and BodyLanguage model FoxedUp or BRILLIANT.MOD
:root
   order TX TY TZ RX RY RZ
   axis XYZ
   position 0 0 0  
   orientation 0 0 0 
:bonedata
  begin
     id 1 
     name lhipjoint
     direction 0.606768 -0.715223 0.346827 
     length 2.41543 
     axis 0 0 0  XYZ
  end
  begin
     id 2 
     name lfemur
     direction 0.34202 -0.939693 0  
     length 7.2778  
     axis 0 0 20  XYZ
    dof rx ry rz
    limits (-160.0 20.0)
           (-70.0 70.0)
           (-60.0 70.0)
  end
  begin
     id 3 
     name ltibia
     direction 0.34202 -0.939693 0   
     length 7.61811   
     axis 0 0 20   XYZ
    dof rx
    limits (-10.0 170.0)
  end
  begin
     id 4 
     name lfoot
     direction 0.0823924 -0.226371 0.97055   
     length 2.33618   
     axis -90 7.62852e-016 20   XYZ
    dof rx rz
    limits (-45.0 90.0)
           (-70.0 20.0)
  end
  begin
     id 5 
     name ltoes
     direction 1.53554e-011 -4.21934e-011 1   
     length 1.17015   
     axis -90 7.62852e-016 20   XYZ
    dof rx
    limits (-90.0 20.0)
  end
  begin
     id 6 
     name rhipjoint
     direction -0.6077 -0.714582 0.346516   
     length 2.4176  
     axis 0 0 0  XYZ 
  end
  begin
     id 7 
     name rfemur
     direction -0.34202 -0.939693 0   
     length 7.28127   
     axis 0 0 -20   XYZ
    dof rx ry rz
    limits (-160.0 20.0)
           (-70.0 70.0)
           (-70.0 60.0)
  end
  begin
     id 8 
     name rtibia
     direction -0.34202 -0.939693 0   
     length 7.77648   
     axis 0 0 -20   XYZ
    dof rx
    limits (-10.0 170.0)
 end
 begin
     id 9 
     name rfoot
     direction -0.0809463 -0.222398 0.97159   
     length 2.37533  
     axis -90 -7.62852e-016 -20   XYZ
    dof rx rz
    limits (-45.0 90.0)
           (-20.0 70.0)
  end
  begin
     id 10 
     name rtoes
     direction -1.53568e-011 -4.21714e-011 1   
     length 1.18972   
     axis -90 -7.62852e-016 -20   XYZ
    dof rx
    limits (-90.0 20.0)
  end
  begin
     id 11 
     name lowerback
     direction 0.010968 0.991932 -0.126297   
     length 2.21698   
     axis 0 0 0   XYZ
    dof rx ry rz
    limits (-20.0 45.0)
           (-30.0 30.0)
           (-30.0 30.0)
  end
  begin
     id 12 
     name upperback
     direction 0.0167007 0.997503 -0.0686276   
     length 2.22371   
     axis 0 0 0   XYZ
    dof rx ry rz
    limits (-20.0 45.0)
           (-30.0 30.0)
           (-30.0 30.0)
  end
  begin
     id 13 
     name thorax
     direction 0.0111721 0.999885 -0.0102878   
     length 2.25242   
     axis 0 0 0   XYZ
    dof rx ry rz
    limits (-20.0 45.0)
           (-30.0 30.0)
           (-30.0 30.0)
  end
  begin
     id 14 
     name lowerneck
     direction -0.0120265 0.990428 0.137508   
     length 1.57674   
     axis 0 0 0   XYZ
    dof rx ry rz
    limits (-20.0 45.0)
           (-30.0 30.0)
           (-30.0 30.0)
  end
  begin
     id 15 
     name upperneck
     direction 0.0175669 0.998907 0.0433089   
     length 1.5618   
     axis 0 0 0   XYZ
    dof rx ry rz
    limits (-20.0 45.0)
           (-30.0 30.0)
           (-30.0 30.0)
  end
  begin
     id 16
     name head
     direction 0.00754609 0.99997 0.00185367  
     length 1.60579  
     axis 0 0 0   XYZ
    dof rx ry rz
    limits (-20.0 45.0)
           (-30.0 30.0)
           (-30.0 30.0)
  end
  begin
     id 17 
     name lclavicle
     direction 0.885866 0.429166 -0.176231  
     length 3.44967  
     axis 0 0 0   XYZ
    dof ry rz
    limits (-20.0 10.0)
           (0.0 20.0)
  end
  begin
     id 18 
     name lhumerus
     direction 1 -4.48973e-011 -1.90255e-027   
     length 5.20607   
     axis 180 -30 -90   XYZ
    dof rx ry rz
    limits (-60.0 90.0)
           (-90.0 90.0)
           (-90.0 90.0)
  end
  begin
     id 19
     name lradius
     direction 1 -4.48956e-011 9.87925e-027   
     length 3.39961   
     axis 180 -30 -90   XYZ
    dof rx
    limits (-10.0 170.0)
  end
  begin
     id 20
     name lwrist
     direction 1 -4.48985e-011 1.73247e-026   
     length 1.6998   
     axis -9.60847e-015 90 90   XYZ
    dof ry
    limits (-180.0 0.0)
 end
  begin
     id 21 
     name lhand
     direction 1 -4.48798e-011 3.46119e-026   
     length 0.519693   
     axis -2.21073e-014 90 90   XYZ
    dof rx rz
    limits (-90.0 90.0)
           (-45.0 45.0)
  end
  begin
     id 22 
     name lfingers
     direction 1 -4.48938e-011 6.92797e-026   
     length 0.41899   
     axis -4.42155e-014 90 90   XYZ
    dof rx
    limits (0.0 90.0)
  end
  begin
     id 23
     name lthumb
     direction 0.707107 -6.34952e-011 0.707107   
     length 0.601588   
     axis -90 45 6.0103e-014   XYZ
    dof rx rz
    limits (-45.0 45.0)
           (-45.0 45.0)
  end
  begin
     id 24 
     name rclavicle
     direction -0.866736 0.456792 -0.200276   
     length 3.45032  
     axis 0 0 0   XYZ 
    dof ry rz
    limits (-10.0 20.0)
           (-20.0 0.0)
  end
  begin
     id 25 
     name rhumerus
     direction -1 -4.4897e-011 8.65094e-028  
     length 5.32214   
     axis 180 30 90   XYZ
    dof rx ry rz
    limits (-90.0 60.0)
           (-90.0 90.0)
           (-90.0 90.0)
  end
  begin
     id 26 
     name rradius
     direction -1 -4.48987e-011 1.08427e-026   
     length 3.51208   
     axis 180 30 90   XYZ
    dof rx
    limits (-10.0 170.0)
  end
  begin
     id 27 
     name rwrist
     direction -1 -4.48961e-011 1.73222e-026   
     length 1.75604   
     axis -9.60847e-015 -90 -90   XYZ
    dof ry
    limits (-180.0 0.0)
  end
  begin
     id 28
     name rhand
     direction -1 -4.48895e-011 3.46314e-026   
     length 0.586681   
     axis -2.21073e-014 -90 -90   XYZ
    dof rx rz
    limits (-90.0 90.0)
           (-45.0 45.0)
  end
  begin
     id 29
     name rfingers
     direction -1 -4.48968e-011 6.92916e-026   
     length 0.472997   
     axis -4.42155e-014 -90 -90   XYZ
    dof rx
    limits (0.0 90.0)
  end
  begin
     id 30
     name rthumb
     direction -0.707107 -6.34848e-011 0.707107   
     length 0.679133   
     axis -90 -45 -6.0103e-014   XYZ
    dof rx rz
    limits (-45.0 45.0)
           (-45.0 45.0)
  end
:hierarchy
  begin
    root lhipjoint rhipjoint lowerback
    lhipjoint lfemur
    lfemur ltibia
    ltibia lfoot
    lfoot ltoes
    rhipjoint rfemur
    rfemur rtibia
    rtibia rfoot
    rfoot rtoes
    lowerback upperback
    upperback thorax
    thorax lowerneck lclavicle rclavicle
    lowerneck upperneck
    upperneck head
    lclavicle lhumerus
    lhumerus lradius
    lradius lwrist
    lwrist lhand lthumb
    lhand lfingers
    rclavicle rhumerus
    rhumerus rradius
    rradius rwrist
    rwrist rhand rthumb
    rhand rfingers
  end

#!OML:ASF H:\Dans Jumps\Project 1\Capture day 1\Session 1\subject.ASF
:FULLY-SPECIFIED
:DEGREES
1
root 0.138875 17.587 -14.4811 6.29199 0.575739 -0.885926
lowerback -1.04054 -0.72818 0.588111
upperback 2.59471 -1.03935 1.7984
thorax 3.27214 -0.528404 1.47928
lowerneck -13.0486 0.61676 -1.63569
upperneck 28.543 1.41335 -0.386909
head 11.4232 0.413006 0.330278
rclavicle 1.49089e-015 2.78299e-015
rhumerus -27.8791 -15.8464 -77.8823
rradius 26.507
rwrist 30.5475
rhand -18.663 -26.8686
rfingers 7.12502
rthumb 7.63045 -56.7109
lclavicle 1.49089e-015 2.78299e-015
lhumerus -23.7735 0.331735 90.1284
lradius 24.5678
lwrist 7.27748
lhand -23.0079 -4.04433
lfingers 7.12502
lthumb 3.43548 25.9077
rfemur -13.7577 -3.73336 20.794
rtibia 20.7747
rfoot -12.5817 -0.821596
rtoes 16.8142
lfemur -16.3299 4.79221 -17.8924
ltibia 23.2042
lfoot -11.2573 3.27982
ltoes 4.57805
2
root 0.141488 17.5868 -14.4758 6.32838 0.514166 -0.920962
lowerback -1.084 -0.673671 0.658514
upperback 2.5781 -0.96925 1.8084
thorax 3.27698 -0.491737 1.45242
lowerneck -13.0696 0.576728 -1.64134
upperneck 28.5155 1.34955 -0.358613
head 11.4169 0.387576 0.33311
rclavicle 8.84592e-015 -7.95139e-015
rhumerus -27.8393 -15.9655 -77.7563
rradius 26.3674
rwrist 30.7288
rhand -18.5938 -27.0044
rfingers 7.12502
rthumb 7.69722 -56.8443
lclavicle 8.84592e-015 -7.95139e-015
lhumerus -23.9257 -0.438465 90.5144
lradius 24.8351
lwrist 7.43023
lhand -24.7204 -4.07718
lfingers 7.12502
lthumb 1.78161 25.8951
rfemur -13.7737 -3.69835 20.8267
rtibia 20.7585
rfoot -12.5847 -0.810356
rtoes 16.8136
lfemur -16.188 4.7768 -17.8805
ltibia 22.8739
lfoot -11.046 2.91944
ltoes 4.50871
3
root 0.145589 17.5868 -14.4707 6.35596 0.454926 -0.966596
lowerback -1.13102 -0.633702 0.725116
upperback 2.57488 -0.919302 1.83347
thorax 3.29857 -0.465469 1.44238
lowerneck -13.0452 0.552048 -1.68431
upperneck 28.4282 1.30897 -0.309125
head 11.3778 0.371961 0.352802
rclavicle -1.98785e-015 7.55382e-015
rhumerus -27.7355 -16.1728 -77.5973
rradius 26.1757
rwrist 30.9898
rhand -18.5849 -26.9595
rfingers 7.12502
rthumb 7.70584 -56.7991
lclavicle -1.98785e-015 7.55382e-015
lhumerus -24.0396 -0.914377 90.7906
lradius 25.3181
lwrist 8.0904
lhand -25.363 -3.62944
lfingers 7.12502
lthumb 1.16096 26.3471
rfemur -13.8031 -3.67277 20.8652
rtibia 20.7878
rfoot -12.6136 -0.788077
rtoes 16.8442
lfemur -16.0049 4.79547 -17.8706
ltibia 22.5108
lfoot -10.7563 2.61766
ltoes 4.66068
4
root 0.152614 17.5853 -14.4636 6.40019 0.375282 -0.959643
lowerback -1.20054 -0.593915 0.735446
upperback 2.55127 -0.867492 1.83787
thorax 3.31231 -0.439388 1.44258
lowerneck -13.0552 0.532465 -1.65911
upperneck 28.3966 1.27646 -0.316326
head 11.3681 0.359489 0.341416
rclavicle 3.67752e-015 -8.74653e-015
rhumerus -27.6417 -16.3019 -77.4772
rradius 26.0201
rwrist 31.1798
rhand -18.6045 -26.9962
rfingers 7.12502
rthumb 7.68686 -56.8365
lclavicle 3.67752e-015 -8.74653e-015
lhumerus -24.2162 -1.44164 91.0598
lradius 25.6678
lwrist 8.42113
lhand -24.9339 -3.58564
lfingers 7.12502
lthumb 1.57538 26.3883
rfemur -13.8492 -3.75285 20.84
rtibia 20.8129
rfoot -12.6453 -0.663842
rtoes 16.775
lfemur -15.7904 4.88223 -17.9398
ltibia 22.1378
lfoot -10.6548 2.74212
ltoes 4.89775
5
root 0.158853 17.5843 -14.4563 6.43977 0.29519 -0.9816
lowerback -1.26661 -0.553796 0.770257
upperback 2.53102 -0.816279 1.85267
thorax 3.32742 -0.413131 1.43986
lowerneck -13.0601 0.513063 -1.65676
upperneck 28.3574 1.2434 -0.301654
head 11.3541 0.347113 0.341858
rclavicle -7.35503e-015 1.19271e-015
rhumerus -27.5573 -16.4169 -77.3536
rradius 25.8722
rwrist 31.3655
rhand -18.5967 -27.0124
rfingers 7.12502
rthumb 7.69443 -56.8524
lclavicle -7.35503e-015 1.19271e-015
lhumerus -24.3848 -1.95659 91.3353
lradius 26.0323
lwrist 8.80337
lhand -25.08 -3.5123
lfingers 7.12502
lthumb 1.43432 26.4626
rfemur -13.892 -3.79235 20.8477
rtibia 20.8459
rfoot -12.6819 -0.574932
rtoes 16.7222
lfemur -15.5754 4.96071 -17.9722
ltibia 21.7477
lfoot -10.5157 2.74652
ltoes 4.91906
6
root 0.165842 17.5831 -14.4485 6.47983 0.211311 -1.01354
lowerback -1.33644 -0.516867 0.80477
upperback 2.5087 -0.769549 1.87248
thorax 3.34274 -0.389189 1.44232
lowerneck -13.0704 0.498895 -1.65072
upperneck 28.326 1.21778 -0.289413
head 11.3442 0.33805 0.341821
rclavicle 1.39149e-015 -5.96354e-015
rhumerus -27.4657 -16.5052 -77.2398
rradius 25.7364
rwrist 31.5298
rhand -18.5985 -27.0139
rfingers 7.12502
rthumb 7.69265 -56.854
lclavicle 1.39149e-015 -5.96354e-015
lhumerus -24.5596 -2.44313 91.5965
lradius 26.3868
lwrist 9.17264
lhand -25.0471 -3.47926
lfingers 7.12502
lthumb 1.46611 26.4955
rfemur -13.9357 -3.83796 20.8643
rtibia 20.8807
rfoot -12.7215 -0.480621
rtoes 16.6584
lfemur -15.3477 5.07179 -18.0002
ltibia 21.3382
lfoot -10.4094 2.81606
ltoes 4.83575
7
root 0.173341 17.5817 -14.4402 6.51801 0.128769 -1.06077
lowerback -1.40457 -0.483311 0.843144
upperback 2.48428 -0.727611 1.89884
thorax 3.35508 -0.36763 1.44926
lowerneck -13.0864 0.488065 -1.64161
upperneck 28.3043 1.19647 -0.277593
head 11.3391 0.331063 0.341733
rclavicle 6.36111e-015 1.98785e-015
rhumerus -27.3694 -16.5631 -77.138
rradius 25.6168
rwrist 31.6664
rhand -18.6013 -27.0135
rfingers 7.12502
rthumb 7.68998 -56.8537
lclavicle 6.36111e-015 1.98785e-015
lhumerus -24.737 -2.91113 91.8494
lradius 26.7134
lwrist 9.49385
lhand -24.9698 -3.49217
lfingers 7.12502
lthumb 1.54071 26.482
rfemur -13.9668 -3.88009 20.8964
rtibia 20.8961
rfoot -12.7518 -0.394849
rtoes 16.5852
lfemur -15.1215 5.21168 -18.0155
ltibia 20.929
lfoot -10.3333 2.91891
ltoes 4.62965
8
root 0.18128 17.5806 -14.4318 6.54919 0.0546635 -1.12403
lowerback -1.46996 -0.454874 0.887728
upperback 2.46324 -0.692946 1.93092
thorax 3.36956 -0.349626 1.45838
lowerneck -13.1073 0.479435 -1.63352
upperneck 28.2867 1.17701 -0.260059
head 11.3366 0.325421 0.344189
rclavicle 6.06293e-015 7.55382e-015
rhumerus -27.2608 -16.6096 -77.0472
rradius 25.5078
rwrist 31.7864
rhand -18.6052 -27.0121
rfingers 7.12502
rthumb 7.68625 -56.8525
lclavicle 6.06293e-015 7.55382e-015
lhumerus -24.9009 -3.35473 92.089
lradius 27.0063
lwrist 9.78523
lhand -24.9124 -3.54553
lfingers 7.12502
lthumb 1.59617 26.4282
rfemur -13.9783 -3.91798 20.9446
rtibia 20.8916
rfoot -12.7736 -0.325157
rtoes 16.5053
lfemur -14.8973 5.3694 -18.0143
ltibia 20.5286
lfoot -10.2733 3.02126
ltoes 4.32587
9
root 0.18947 17.5797 -14.4237 6.57156 -0.00375525 -1.20096
lowerback -1.52857 -0.432893 0.937169
upperback 2.44899 -0.667261 1.96749
thorax 3.38741 -0.336045 1.4691
lowerneck -13.1358 0.471151 -1.62604
upperneck 28.273 1.1571 -0.238143
head 11.337 0.319972 0.34834
rclavicle -6.36111e-015 1.19271e-015
rhumerus -27.1356 -16.6561 -76.9689
rradius 25.4108
rwrist 31.8968
rhand -18.617 -27.0102
rfingers 7.12502
rthumb 7.67488 -56.8509
lclavicle -6.36111e-015 1.19271e-015
lhumerus -25.0378 -3.77504 92.3111
lradius 27.2563
lwrist 10.0311
lhand -24.8518 -3.56277
lfingers 7.12502
lthumb 1.65465 26.4106
rfemur -13.967 -3.9446 21.0067
rtibia 20.8617
rfoot -12.7802 -0.284704
rtoes 16.4242
lfemur -14.6864 5.52754 -17.9945
ltibia 20.1541
lfoot -10.2219 3.09924
ltoes 3.96632
10
root 0.197963 17.5794 -14.4159 6.58005 -0.0440453 -1.28051
lowerback -1.57826 -0.418511 0.983918
upperback 2.44193 -0.651659 2.00383
thorax 3.4079 -0.327563 1.48074
lowerneck -13.1676 0.462307 -1.62058
upperneck 28.2617 1.13436 -0.20736
head 11.339 0.314071 0.35572
rclavicle 2.5842e-015 -9.93923e-015
rhumerus -26.9925 -16.7318 -76.8967
rradius 25.3099
rwrist 32.0291
rhand -18.6346 -27.0118
rfingers 7.12502
rthumb 7.6578 -56.8532
lclavicle 2.5842e-015 -9.93923e-015
lhumerus -25.1444 -4.16692 92.5128
lradius 27.4502
lwrist 10.234
lhand -24.7993 -3.57135
lfingers 7.12502
lthumb 1.70538 26.4016
rfemur -13.9253 -3.96369 21.0695
rtibia 20.8064
rfoot -12.7736 -0.27434
rtoes 16.3344
lfemur -14.4854 5.67104 -17.9652
ltibia 19.8207
lfoot -10.1777 3.14946
ltoes 3.67161
11
root 0.206493 17.5798 -14.4086 6.57538 -0.0628902 -1.35758
lowerback -1.61483 -0.411984 1.02427
upperback 2.44149 -0.646132 2.03666
thorax 3.42804 -0.324222 1.49199
lowerneck -13.2035 0.451432 -1.61982
upperneck 28.2523 1.10626 -0.16385
head 11.3425 0.306784 0.367869
rclavicle 1.59028e-015 5.1684e-015
rhumerus -26.8334 -16.8408 -76.8346
rradius 25.2077
rwrist 32.1817
rhand -18.6642 -27.0092
rfingers 7.12502
rthumb 7.62924 -56.8516
lclavicle 1.59028e-015 5.1684e-015
lhumerus -25.216 -4.52993 92.6892
lradius 27.5786
lwrist 10.3804
lhand -24.7591 -3.58402
lfingers 7.12502
lthumb 1.7442 26.3886
rfemur -13.8587 -3.9668 21.1283
rtibia 20.7325
rfoot -12.7564 -0.307406
rtoes 16.2331
lfemur -14.3016 5.78487 -17.928
ltibia 19.5398
lfoot -10.141 3.17358
ltoes 3.41653
12
root 0.214929 17.581 -14.4021 6.55917 -0.0592022 -1.41904
lowerback -1.63542 -0.414082 1.04526
upperback 2.44507 -0.651013 2.06256
thorax 3.44362 -0.326476 1.50658
lowerneck -13.2405 0.439888 -1.62427
upperneck 28.2429 1.07499 -0.108212
head 11.346 0.299004 0.38493
rclavicle 9.93923e-015 -4.37326e-015
rhumerus -26.6627 -16.9856 -76.7811
rradius 25.1035
rwrist 32.3601
rhand -18.7038 -27.0125
rfingers 7.12502
rthumb 7.59107 -56.8563
lclavicle 9.93923e-015 -4.37326e-015
lhumerus -25.2489 -4.85901 92.8373
lradius 27.6346
lwrist 10.4686
lhand -24.7295 -3.60748
lfingers 7.12502
lthumb 1.77286 26.3649
rfemur -13.7758 -3.95325 21.1691
rtibia 20.6531
rfoot -12.7347 -0.386619
rtoes 16.1103
lfemur -14.1381 5.86497 -17.8965
ltibia 19.3119
lfoot -10.1106 3.16516
ltoes 3.2249
13
root 0.222984 17.5825 -14.3963 6.53324 -0.0297084 -1.45608
lowerback -1.63991 -0.426044 1.03658
upperback 2.45071 -0.667475 2.07975
thorax 3.45264 -0.335155 1.5284
lowerneck -13.2709 0.425836 -1.63698
upperneck 28.2274 1.03837 -0.0400164
head 11.3458 0.289546 0.407233
rclavicle 1.09332e-015 -1.03368e-014
rhumerus -26.4824 -17.1651 -76.7367
rradius 24.9965
rwrist 32.5573
rhand -18.7513 -27.0158
rfingers 7.12502
rthumb 7.54521 -56.8612
lclavicle 1.09332e-015 -1.03368e-014
lhumerus -25.2418 -5.14927 92.9537
lradius 27.6111
lwrist 10.4887
lhand -24.7026 -3.64383
lfingers 7.12502
lthumb 1.79883 26.3283
rfemur -13.6871 -3.92334 21.184
rtibia 20.5841
rfoot -12.7156 -0.517059
rtoes 15.9627
lfemur -13.9961 5.91258 -17.8807
ltibia 19.1313
lfoot -10.0839 3.11838
ltoes 3.10059
